<svg xmlns="http://www.w3.org/2000/svg" viewBox="0 0 512 512">
	<path d="M153.6,243.2c56.55,0,102.4-45.85,102.4-102.4c0-56.55-45.85-102.4-102.4-102.4
		c-56.55,0-102.4,45.85-102.4,102.4C51.2,197.35,97.04,243.2,153.6,243.2z M384,243.2c42.42,0,76.8-34.38,76.8-76.8
		c0-42.41-34.38-76.8-76.8-76.8c-42.42,0-76.8,34.38-76.8,76.8C307.2,208.82,341.58,243.2,384,243.2z M57.6,294.4
		C25.79,294.4,0,320.19,0,352v6.4c0,0,0,115.2,153.6,115.2s153.6-115.2,153.6-115.2V352c0-31.81-25.79-57.6-57.6-57.6H57.6z
		 M384,435.2c-29.98,0-52.94-4.64-70.52-11.74c8.75-14.72,13.48-28.86,16.05-39.88c1.55-6.63,2.36-12.31,2.79-16.6l0.4-5.42
		l0.07-1.88l0.01-0.72l0-0.3v-0.14v-0.07v-0.06V352c0-22.33-8.79-42.59-23.1-57.54l2.62-0.06h143.36c31.1,0,56.32,25.22,56.32,56.32
		C512,350.72,512,435.2,384,435.2z" fill="currentColor" />
</svg>