<svg viewBox="0 0 64 64" xmlns="http://www.w3.org/2000/svg">
  <path d="M12,32c0,11,9,20,20,20c8.2,0,15.2-4.9,18.3-12" fill="none" stroke="currentColor" stroke-width="6"/>
  <path d="M13.6,24.2C16.6,17,23.7,12,32,12c11,0,20,9,20,20" fill="none" stroke="currentColor" stroke-width="6"/>
  <polygon points="55,50 55,37 42,37" fill="currentColor"/>
  <polygon points="9,14 9,27 22,27" fill="currentColor"/>
  <path d="M39.4,31.1l-11-6.4c-0.6-0.3-1.3,0.1-1.3,0.7v12.7c0,0.7,0.7,1.1,1.3,0.7l11-6.4C40,32.3,40,31.5,39.4,31.1z" fill="currentColor"/>
</svg>
