<svg xmlns="http://www.w3.org/2000/svg" width="143" height="143" fill="none"><path fill="#E6E4E5" d="M85.792 43.01c10.859 4.386 30.071 3.76 41.974 2.715-9.815-21.509-31.533-36.544-56.592-36.544-12.111 0-23.179 3.341-32.785 9.397C59.272 8.764 69.295 36.12 85.792 43.011Z"/><path fill="#E6E4E5" d="M142.174 71.41c0 39.259-31.741 71.001-71 71.001s-71-31.742-71-71c0-39.26 31.741-71 71-71s71 31.95 71 71Z"/><path fill="url(#a)" d="M107.717 67.86c9.606.627 18.376-1.879 25.059-4.802-.836-6.265-2.506-12.112-5.012-17.541-11.903 1.044-31.115 1.67-41.974-2.715C69.293 35.911 58.435 8.138 38.387 18.37 20.638 29.437 8.944 48.858 8.944 71.41a62.08 62.08 0 0 0 2.297 16.707c9.815-8.77 30.489-25.268 49.074-30.28 25.059-6.682 26.73 8.771 47.403 10.024Z"/><path fill="url(#b)" d="M132.777 63.267c-6.682 2.923-15.453 5.22-25.059 4.803-20.673-1.253-22.344-16.915-47.612-10.024-18.376 5.012-39.05 21.718-49.073 30.28 2.088 7.1 5.22 13.782 9.606 19.838 6.682-5.639 14.826-10.86 23.806-12.739 25.685-5.429 25.685 12.947 47.403 10.442 11.903-1.462 28.191-12.947 40.511-22.97.627-3.55 1.045-7.31 1.045-11.069 0-3.132-.209-5.847-.627-8.561Z"/><path fill="url(#c)" d="M44.444 95.216c-8.98 1.88-17.123 7.1-23.806 12.739 11.277 15.661 29.653 25.894 50.536 25.894 30.697 0 55.964-22.136 61.185-51.162-12.321 10.024-28.609 21.509-40.512 22.971-21.717 2.505-21.717-16.08-47.403-10.442Z"/><path fill="url(#d)" d="M97.277 83.105c2.506 6.264.209 13.156-5.638 15.661-5.638 2.298-12.32-.835-15.035-6.89-2.506-6.266-.21-13.157 5.638-15.663 5.847-2.505 12.53.627 15.035 6.892Z"/><defs><linearGradient id="a" x1="70.834" x2="70.834" y1="57.944" y2="17.912" gradientUnits="userSpaceOnUse"><stop offset="0" stop-color="#88C6EB"/><stop offset="1" stop-color="#2392CC"/></linearGradient><linearGradient id="b" x1="76.829" x2="70.589" y1="109.069" y2="66.167" gradientUnits="userSpaceOnUse"><stop offset="0" stop-color="#2383C6"/><stop offset="1" stop-color="#33519F"/></linearGradient><linearGradient id="c" x1="76.513" x2="76.513" y1="128.007" y2="94.94" gradientUnits="userSpaceOnUse"><stop offset="0" stop-color="#1E4999"/><stop offset="1" stop-color="#1B3B6C"/></linearGradient><linearGradient id="d" x1="88.772" x2="85.747" y1="102.59" y2="75.528" gradientUnits="userSpaceOnUse"><stop offset="0" stop-color="#1E4999"/><stop offset="1" stop-color="#1B3B6C"/></linearGradient></defs></svg>